G04 EAGLE Gerber RS-274X export*
G75*
%MOMM*%
%FSLAX34Y34*%
%LPD*%
%INTop Copper*%
%IPPOS*%
%AMOC8*
5,1,8,0,0,1.08239X$1,22.5*%
G01*
%ADD10R,0.660400X2.032000*%
%ADD11R,2.540000X5.080000*%
%ADD12P,1.979475X8X112.500000*%
%ADD13P,1.979475X8X202.500000*%
%ADD14C,1.828800*%
%ADD15C,1.000000*%
%ADD16C,1.112000*%


D10*
X19650Y20666D03*
X19650Y82134D03*
X32350Y20666D03*
X45050Y20666D03*
X32350Y82134D03*
X45050Y82134D03*
X57750Y20666D03*
X57750Y82134D03*
X70450Y20666D03*
X70450Y82134D03*
X83150Y20666D03*
X95850Y20666D03*
X83150Y82134D03*
X95850Y82134D03*
X108550Y20666D03*
X108550Y82134D03*
D11*
X227100Y124900D03*
X56400Y127600D03*
X185900Y125300D03*
X18300Y127600D03*
D12*
X137800Y28300D03*
X137800Y104500D03*
D13*
X158000Y127600D03*
X81800Y127600D03*
D12*
X173400Y10400D03*
X173400Y86600D03*
D14*
X204856Y48700D02*
X223144Y48700D01*
X223144Y23300D02*
X204856Y23300D01*
X204856Y74100D02*
X223144Y74100D01*
D15*
X45050Y67950D02*
X45050Y82134D01*
X110100Y56000D02*
X137800Y28300D01*
X57000Y56000D02*
X45050Y67950D01*
X57000Y56000D02*
X110100Y56000D01*
X185000Y126250D02*
X185900Y125300D01*
X137800Y107400D02*
X137800Y104500D01*
X137800Y107400D02*
X158000Y127600D01*
X183600Y127600D01*
X185900Y125300D01*
X18750Y127500D02*
X18300Y127600D01*
X19650Y117350D02*
X19650Y82134D01*
X19650Y117350D02*
X18000Y119000D01*
X18000Y127300D01*
X18300Y127600D01*
X56400Y127600D02*
X57500Y122500D01*
X57750Y126250D02*
X57750Y82134D01*
X57750Y126250D02*
X56400Y127600D01*
X81800Y127600D01*
X80000Y104000D02*
X56400Y127600D01*
X192700Y23300D02*
X214000Y23300D01*
X112000Y104000D02*
X80000Y104000D01*
X112000Y104000D02*
X132000Y84000D01*
X192700Y23300D01*
X115334Y20666D02*
X108550Y20666D01*
X115334Y20666D02*
X120000Y16000D01*
D16*
X120000Y16000D03*
X122000Y70000D03*
D15*
X122000Y74000D01*
X132000Y84000D01*
X32350Y20666D02*
X32350Y4650D01*
X36000Y1000D02*
X165000Y1000D01*
X173400Y9400D01*
X173400Y10400D01*
X36000Y1000D02*
X32350Y4650D01*
X173400Y86600D02*
X185900Y74100D01*
X214000Y74100D01*
X227100Y104900D02*
X227100Y124900D01*
X241000Y91000D02*
X241000Y56000D01*
X233700Y48700D01*
X214000Y48700D01*
X241000Y91000D02*
X227100Y104900D01*
X32350Y82134D02*
X32350Y46650D01*
X35000Y44000D02*
X51000Y44000D01*
X57750Y37250D01*
X57750Y20666D01*
X35000Y44000D02*
X32350Y46650D01*
M02*
