G04 EAGLE Gerber RS-274X export*
G75*
%MOMM*%
%FSLAX34Y34*%
%LPD*%
%INSilkscreen Top*%
%IPPOS*%
%AMOC8*
5,1,8,0,0,1.08239X$1,22.5*%
G01*
%ADD10C,0.152400*%
%ADD11C,0.050800*%
%ADD12C,0.127000*%
%ADD13C,0.101600*%


D10*
X111090Y70958D02*
X17110Y70958D01*
X111090Y31842D02*
X111212Y31844D01*
X111334Y31850D01*
X111456Y31860D01*
X111577Y31873D01*
X111698Y31891D01*
X111818Y31912D01*
X111938Y31938D01*
X112056Y31967D01*
X112174Y31999D01*
X112291Y32036D01*
X112406Y32076D01*
X112520Y32120D01*
X112632Y32168D01*
X112743Y32219D01*
X112852Y32274D01*
X112960Y32332D01*
X113065Y32394D01*
X113168Y32459D01*
X113270Y32527D01*
X113369Y32599D01*
X113465Y32673D01*
X113560Y32751D01*
X113651Y32832D01*
X113741Y32915D01*
X113827Y33001D01*
X113910Y33091D01*
X113991Y33182D01*
X114069Y33277D01*
X114143Y33373D01*
X114215Y33472D01*
X114283Y33574D01*
X114348Y33677D01*
X114410Y33782D01*
X114468Y33890D01*
X114523Y33999D01*
X114574Y34110D01*
X114622Y34222D01*
X114666Y34336D01*
X114706Y34451D01*
X114743Y34568D01*
X114775Y34686D01*
X114804Y34804D01*
X114830Y34924D01*
X114851Y35044D01*
X114869Y35165D01*
X114882Y35286D01*
X114892Y35408D01*
X114898Y35530D01*
X114900Y35652D01*
X17110Y70958D02*
X16988Y70956D01*
X16866Y70950D01*
X16744Y70940D01*
X16623Y70927D01*
X16502Y70909D01*
X16382Y70888D01*
X16262Y70862D01*
X16144Y70833D01*
X16026Y70801D01*
X15909Y70764D01*
X15794Y70724D01*
X15680Y70680D01*
X15568Y70632D01*
X15457Y70581D01*
X15348Y70526D01*
X15240Y70468D01*
X15135Y70406D01*
X15032Y70341D01*
X14930Y70273D01*
X14831Y70201D01*
X14735Y70127D01*
X14640Y70049D01*
X14549Y69968D01*
X14459Y69885D01*
X14373Y69799D01*
X14290Y69709D01*
X14209Y69618D01*
X14131Y69523D01*
X14057Y69427D01*
X13985Y69328D01*
X13917Y69226D01*
X13852Y69123D01*
X13790Y69018D01*
X13732Y68910D01*
X13677Y68801D01*
X13626Y68690D01*
X13578Y68578D01*
X13534Y68464D01*
X13494Y68349D01*
X13457Y68232D01*
X13425Y68114D01*
X13396Y67996D01*
X13370Y67876D01*
X13349Y67756D01*
X13331Y67635D01*
X13318Y67514D01*
X13308Y67392D01*
X13302Y67270D01*
X13300Y67148D01*
X111090Y70958D02*
X111212Y70956D01*
X111334Y70950D01*
X111456Y70940D01*
X111577Y70927D01*
X111698Y70909D01*
X111818Y70888D01*
X111938Y70862D01*
X112056Y70833D01*
X112174Y70801D01*
X112291Y70764D01*
X112406Y70724D01*
X112520Y70680D01*
X112632Y70632D01*
X112743Y70581D01*
X112852Y70526D01*
X112960Y70468D01*
X113065Y70406D01*
X113168Y70341D01*
X113270Y70273D01*
X113369Y70201D01*
X113465Y70127D01*
X113560Y70049D01*
X113651Y69968D01*
X113741Y69885D01*
X113827Y69799D01*
X113910Y69709D01*
X113991Y69618D01*
X114069Y69523D01*
X114143Y69427D01*
X114215Y69328D01*
X114283Y69226D01*
X114348Y69123D01*
X114410Y69018D01*
X114468Y68910D01*
X114523Y68801D01*
X114574Y68690D01*
X114622Y68578D01*
X114666Y68464D01*
X114706Y68349D01*
X114743Y68232D01*
X114775Y68114D01*
X114804Y67996D01*
X114830Y67876D01*
X114851Y67756D01*
X114869Y67635D01*
X114882Y67514D01*
X114892Y67392D01*
X114898Y67270D01*
X114900Y67148D01*
X17110Y31842D02*
X16988Y31844D01*
X16866Y31850D01*
X16744Y31860D01*
X16623Y31873D01*
X16502Y31891D01*
X16382Y31912D01*
X16262Y31938D01*
X16144Y31967D01*
X16026Y31999D01*
X15909Y32036D01*
X15794Y32076D01*
X15680Y32120D01*
X15568Y32168D01*
X15457Y32219D01*
X15348Y32274D01*
X15240Y32332D01*
X15135Y32394D01*
X15032Y32459D01*
X14930Y32527D01*
X14831Y32599D01*
X14735Y32673D01*
X14640Y32751D01*
X14549Y32832D01*
X14459Y32915D01*
X14373Y33001D01*
X14290Y33091D01*
X14209Y33182D01*
X14131Y33277D01*
X14057Y33373D01*
X13985Y33472D01*
X13917Y33574D01*
X13852Y33677D01*
X13790Y33782D01*
X13732Y33890D01*
X13677Y33999D01*
X13626Y34110D01*
X13578Y34222D01*
X13534Y34336D01*
X13494Y34451D01*
X13457Y34568D01*
X13425Y34686D01*
X13396Y34804D01*
X13370Y34924D01*
X13349Y35044D01*
X13331Y35165D01*
X13318Y35286D01*
X13308Y35408D01*
X13302Y35530D01*
X13300Y35652D01*
X17110Y31842D02*
X111090Y31842D01*
X114900Y35652D02*
X114900Y67148D01*
X13300Y67148D02*
X13300Y56480D01*
X13300Y46320D01*
X13300Y35652D01*
X13300Y46320D02*
X13441Y46322D01*
X13582Y46328D01*
X13723Y46338D01*
X13864Y46351D01*
X14004Y46369D01*
X14143Y46391D01*
X14282Y46416D01*
X14421Y46445D01*
X14558Y46478D01*
X14694Y46515D01*
X14829Y46556D01*
X14964Y46600D01*
X15096Y46648D01*
X15228Y46700D01*
X15358Y46755D01*
X15486Y46814D01*
X15613Y46877D01*
X15737Y46943D01*
X15860Y47012D01*
X15981Y47085D01*
X16100Y47161D01*
X16217Y47241D01*
X16331Y47324D01*
X16444Y47409D01*
X16553Y47498D01*
X16661Y47590D01*
X16765Y47685D01*
X16867Y47783D01*
X16966Y47884D01*
X17063Y47987D01*
X17156Y48093D01*
X17246Y48201D01*
X17334Y48312D01*
X17418Y48425D01*
X17499Y48541D01*
X17577Y48659D01*
X17652Y48779D01*
X17723Y48901D01*
X17791Y49025D01*
X17855Y49151D01*
X17916Y49278D01*
X17973Y49407D01*
X18026Y49538D01*
X18076Y49670D01*
X18123Y49803D01*
X18165Y49938D01*
X18204Y50074D01*
X18239Y50211D01*
X18270Y50348D01*
X18297Y50487D01*
X18321Y50626D01*
X18340Y50766D01*
X18356Y50906D01*
X18368Y51047D01*
X18376Y51188D01*
X18380Y51329D01*
X18380Y51471D01*
X18376Y51612D01*
X18368Y51753D01*
X18356Y51894D01*
X18340Y52034D01*
X18321Y52174D01*
X18297Y52313D01*
X18270Y52452D01*
X18239Y52589D01*
X18204Y52726D01*
X18165Y52862D01*
X18123Y52997D01*
X18076Y53130D01*
X18026Y53262D01*
X17973Y53393D01*
X17916Y53522D01*
X17855Y53649D01*
X17791Y53775D01*
X17723Y53899D01*
X17652Y54021D01*
X17577Y54141D01*
X17499Y54259D01*
X17418Y54375D01*
X17334Y54488D01*
X17246Y54599D01*
X17156Y54707D01*
X17063Y54813D01*
X16966Y54916D01*
X16867Y55017D01*
X16765Y55115D01*
X16661Y55210D01*
X16553Y55302D01*
X16444Y55391D01*
X16331Y55476D01*
X16217Y55559D01*
X16100Y55639D01*
X15981Y55715D01*
X15860Y55788D01*
X15737Y55857D01*
X15613Y55923D01*
X15486Y55986D01*
X15358Y56045D01*
X15228Y56100D01*
X15096Y56152D01*
X14964Y56200D01*
X14829Y56244D01*
X14694Y56285D01*
X14558Y56322D01*
X14421Y56355D01*
X14282Y56384D01*
X14143Y56409D01*
X14004Y56431D01*
X13864Y56449D01*
X13723Y56462D01*
X13582Y56472D01*
X13441Y56478D01*
X13300Y56480D01*
D11*
X13300Y35398D02*
X114900Y35398D01*
D12*
X8855Y32985D02*
X-2575Y32985D01*
X8855Y31715D02*
X8855Y34255D01*
X-2575Y34255D02*
X-2575Y31715D01*
X8855Y41457D02*
X8855Y43997D01*
X8855Y41457D02*
X8853Y41357D01*
X8847Y41258D01*
X8837Y41158D01*
X8824Y41060D01*
X8806Y40961D01*
X8785Y40864D01*
X8760Y40768D01*
X8731Y40672D01*
X8698Y40578D01*
X8662Y40485D01*
X8622Y40394D01*
X8578Y40304D01*
X8531Y40216D01*
X8481Y40130D01*
X8427Y40046D01*
X8370Y39964D01*
X8310Y39885D01*
X8246Y39807D01*
X8180Y39733D01*
X8111Y39661D01*
X8039Y39592D01*
X7965Y39526D01*
X7887Y39462D01*
X7808Y39402D01*
X7726Y39345D01*
X7642Y39291D01*
X7556Y39241D01*
X7468Y39194D01*
X7378Y39150D01*
X7287Y39110D01*
X7194Y39074D01*
X7100Y39041D01*
X7004Y39012D01*
X6908Y38987D01*
X6811Y38966D01*
X6712Y38948D01*
X6614Y38935D01*
X6514Y38925D01*
X6415Y38919D01*
X6315Y38917D01*
X-35Y38917D01*
X-135Y38919D01*
X-234Y38925D01*
X-334Y38935D01*
X-432Y38948D01*
X-531Y38966D01*
X-628Y38987D01*
X-724Y39012D01*
X-820Y39041D01*
X-914Y39074D01*
X-1007Y39110D01*
X-1098Y39150D01*
X-1188Y39194D01*
X-1276Y39241D01*
X-1362Y39291D01*
X-1446Y39345D01*
X-1528Y39402D01*
X-1607Y39462D01*
X-1685Y39526D01*
X-1759Y39592D01*
X-1831Y39661D01*
X-1900Y39733D01*
X-1966Y39807D01*
X-2030Y39885D01*
X-2090Y39964D01*
X-2147Y40046D01*
X-2201Y40130D01*
X-2251Y40216D01*
X-2298Y40304D01*
X-2342Y40394D01*
X-2382Y40485D01*
X-2418Y40578D01*
X-2451Y40672D01*
X-2480Y40768D01*
X-2505Y40864D01*
X-2526Y40961D01*
X-2544Y41060D01*
X-2557Y41158D01*
X-2567Y41258D01*
X-2573Y41357D01*
X-2575Y41457D01*
X-2575Y43997D01*
X-35Y48479D02*
X-2575Y51654D01*
X8855Y51654D01*
X8855Y48479D02*
X8855Y54829D01*
D13*
X199908Y100408D02*
X211592Y100408D01*
X199908Y100408D02*
X199908Y103654D01*
X199910Y103767D01*
X199916Y103880D01*
X199926Y103993D01*
X199940Y104106D01*
X199957Y104218D01*
X199979Y104329D01*
X200004Y104439D01*
X200034Y104549D01*
X200067Y104657D01*
X200104Y104764D01*
X200144Y104870D01*
X200189Y104974D01*
X200237Y105077D01*
X200288Y105178D01*
X200343Y105277D01*
X200401Y105374D01*
X200463Y105469D01*
X200528Y105562D01*
X200596Y105652D01*
X200667Y105740D01*
X200742Y105826D01*
X200819Y105909D01*
X200899Y105989D01*
X200982Y106066D01*
X201068Y106141D01*
X201156Y106212D01*
X201246Y106280D01*
X201339Y106345D01*
X201434Y106407D01*
X201531Y106465D01*
X201630Y106520D01*
X201731Y106571D01*
X201834Y106619D01*
X201938Y106664D01*
X202044Y106704D01*
X202151Y106741D01*
X202259Y106774D01*
X202369Y106804D01*
X202479Y106829D01*
X202590Y106851D01*
X202702Y106868D01*
X202815Y106882D01*
X202928Y106892D01*
X203041Y106898D01*
X203154Y106900D01*
X203267Y106898D01*
X203380Y106892D01*
X203493Y106882D01*
X203606Y106868D01*
X203718Y106851D01*
X203829Y106829D01*
X203939Y106804D01*
X204049Y106774D01*
X204157Y106741D01*
X204264Y106704D01*
X204370Y106664D01*
X204474Y106619D01*
X204577Y106571D01*
X204678Y106520D01*
X204777Y106465D01*
X204874Y106407D01*
X204969Y106345D01*
X205062Y106280D01*
X205152Y106212D01*
X205240Y106141D01*
X205326Y106066D01*
X205409Y105989D01*
X205489Y105909D01*
X205566Y105826D01*
X205641Y105740D01*
X205712Y105652D01*
X205780Y105562D01*
X205845Y105469D01*
X205907Y105374D01*
X205965Y105277D01*
X206020Y105178D01*
X206071Y105077D01*
X206119Y104974D01*
X206164Y104870D01*
X206204Y104764D01*
X206241Y104657D01*
X206274Y104549D01*
X206304Y104439D01*
X206329Y104329D01*
X206351Y104218D01*
X206368Y104106D01*
X206382Y103993D01*
X206392Y103880D01*
X206398Y103767D01*
X206400Y103654D01*
X206399Y103654D02*
X206399Y100408D01*
X211592Y110639D02*
X199908Y114533D01*
X211592Y118428D01*
X208671Y117454D02*
X208671Y111612D01*
X211592Y123099D02*
X199908Y123099D01*
X199908Y126344D01*
X199910Y126457D01*
X199916Y126570D01*
X199926Y126683D01*
X199940Y126796D01*
X199957Y126908D01*
X199979Y127019D01*
X200004Y127129D01*
X200034Y127239D01*
X200067Y127347D01*
X200104Y127454D01*
X200144Y127560D01*
X200189Y127664D01*
X200237Y127767D01*
X200288Y127868D01*
X200343Y127967D01*
X200401Y128064D01*
X200463Y128159D01*
X200528Y128252D01*
X200596Y128342D01*
X200667Y128430D01*
X200742Y128516D01*
X200819Y128599D01*
X200899Y128679D01*
X200982Y128756D01*
X201068Y128831D01*
X201156Y128902D01*
X201246Y128970D01*
X201339Y129035D01*
X201434Y129097D01*
X201531Y129155D01*
X201630Y129210D01*
X201731Y129261D01*
X201834Y129309D01*
X201938Y129354D01*
X202044Y129394D01*
X202151Y129431D01*
X202259Y129464D01*
X202369Y129494D01*
X202479Y129519D01*
X202590Y129541D01*
X202702Y129558D01*
X202815Y129572D01*
X202928Y129582D01*
X203041Y129588D01*
X203154Y129590D01*
X208346Y129590D01*
X208459Y129588D01*
X208572Y129582D01*
X208685Y129572D01*
X208798Y129558D01*
X208910Y129541D01*
X209021Y129519D01*
X209131Y129494D01*
X209241Y129464D01*
X209349Y129431D01*
X209456Y129394D01*
X209562Y129354D01*
X209666Y129309D01*
X209769Y129261D01*
X209870Y129210D01*
X209969Y129155D01*
X210066Y129097D01*
X210161Y129035D01*
X210254Y128970D01*
X210344Y128902D01*
X210432Y128831D01*
X210518Y128756D01*
X210601Y128679D01*
X210681Y128599D01*
X210758Y128516D01*
X210833Y128430D01*
X210904Y128342D01*
X210972Y128252D01*
X211037Y128159D01*
X211099Y128064D01*
X211157Y127967D01*
X211212Y127868D01*
X211263Y127767D01*
X211311Y127664D01*
X211356Y127560D01*
X211396Y127454D01*
X211433Y127347D01*
X211466Y127239D01*
X211496Y127129D01*
X211521Y127019D01*
X211543Y126908D01*
X211560Y126796D01*
X211574Y126683D01*
X211584Y126570D01*
X211590Y126457D01*
X211592Y126344D01*
X211592Y123099D01*
X202504Y134910D02*
X199908Y138155D01*
X211592Y138155D01*
X211592Y134910D02*
X211592Y141401D01*
X40892Y103108D02*
X29208Y103108D01*
X29208Y106354D01*
X29210Y106467D01*
X29216Y106580D01*
X29226Y106693D01*
X29240Y106806D01*
X29257Y106918D01*
X29279Y107029D01*
X29304Y107139D01*
X29334Y107249D01*
X29367Y107357D01*
X29404Y107464D01*
X29444Y107570D01*
X29489Y107674D01*
X29537Y107777D01*
X29588Y107878D01*
X29643Y107977D01*
X29701Y108074D01*
X29763Y108169D01*
X29828Y108262D01*
X29896Y108352D01*
X29967Y108440D01*
X30042Y108526D01*
X30119Y108609D01*
X30199Y108689D01*
X30282Y108766D01*
X30368Y108841D01*
X30456Y108912D01*
X30546Y108980D01*
X30639Y109045D01*
X30734Y109107D01*
X30831Y109165D01*
X30930Y109220D01*
X31031Y109271D01*
X31134Y109319D01*
X31238Y109364D01*
X31344Y109404D01*
X31451Y109441D01*
X31559Y109474D01*
X31669Y109504D01*
X31779Y109529D01*
X31890Y109551D01*
X32002Y109568D01*
X32115Y109582D01*
X32228Y109592D01*
X32341Y109598D01*
X32454Y109600D01*
X32567Y109598D01*
X32680Y109592D01*
X32793Y109582D01*
X32906Y109568D01*
X33018Y109551D01*
X33129Y109529D01*
X33239Y109504D01*
X33349Y109474D01*
X33457Y109441D01*
X33564Y109404D01*
X33670Y109364D01*
X33774Y109319D01*
X33877Y109271D01*
X33978Y109220D01*
X34077Y109165D01*
X34174Y109107D01*
X34269Y109045D01*
X34362Y108980D01*
X34452Y108912D01*
X34540Y108841D01*
X34626Y108766D01*
X34709Y108689D01*
X34789Y108609D01*
X34866Y108526D01*
X34941Y108440D01*
X35012Y108352D01*
X35080Y108262D01*
X35145Y108169D01*
X35207Y108074D01*
X35265Y107977D01*
X35320Y107878D01*
X35371Y107777D01*
X35419Y107674D01*
X35464Y107570D01*
X35504Y107464D01*
X35541Y107357D01*
X35574Y107249D01*
X35604Y107139D01*
X35629Y107029D01*
X35651Y106918D01*
X35668Y106806D01*
X35682Y106693D01*
X35692Y106580D01*
X35698Y106467D01*
X35700Y106354D01*
X35699Y106354D02*
X35699Y103108D01*
X40892Y113339D02*
X29208Y117233D01*
X40892Y121128D01*
X37971Y120154D02*
X37971Y114312D01*
X40892Y125799D02*
X29208Y125799D01*
X29208Y129044D01*
X29210Y129157D01*
X29216Y129270D01*
X29226Y129383D01*
X29240Y129496D01*
X29257Y129608D01*
X29279Y129719D01*
X29304Y129829D01*
X29334Y129939D01*
X29367Y130047D01*
X29404Y130154D01*
X29444Y130260D01*
X29489Y130364D01*
X29537Y130467D01*
X29588Y130568D01*
X29643Y130667D01*
X29701Y130764D01*
X29763Y130859D01*
X29828Y130952D01*
X29896Y131042D01*
X29967Y131130D01*
X30042Y131216D01*
X30119Y131299D01*
X30199Y131379D01*
X30282Y131456D01*
X30368Y131531D01*
X30456Y131602D01*
X30546Y131670D01*
X30639Y131735D01*
X30734Y131797D01*
X30831Y131855D01*
X30930Y131910D01*
X31031Y131961D01*
X31134Y132009D01*
X31238Y132054D01*
X31344Y132094D01*
X31451Y132131D01*
X31559Y132164D01*
X31669Y132194D01*
X31779Y132219D01*
X31890Y132241D01*
X32002Y132258D01*
X32115Y132272D01*
X32228Y132282D01*
X32341Y132288D01*
X32454Y132290D01*
X37646Y132290D01*
X37759Y132288D01*
X37872Y132282D01*
X37985Y132272D01*
X38098Y132258D01*
X38210Y132241D01*
X38321Y132219D01*
X38431Y132194D01*
X38541Y132164D01*
X38649Y132131D01*
X38756Y132094D01*
X38862Y132054D01*
X38966Y132009D01*
X39069Y131961D01*
X39170Y131910D01*
X39269Y131855D01*
X39366Y131797D01*
X39461Y131735D01*
X39554Y131670D01*
X39644Y131602D01*
X39732Y131531D01*
X39818Y131456D01*
X39901Y131379D01*
X39981Y131299D01*
X40058Y131216D01*
X40133Y131130D01*
X40204Y131042D01*
X40272Y130952D01*
X40337Y130859D01*
X40399Y130764D01*
X40457Y130667D01*
X40512Y130568D01*
X40563Y130467D01*
X40611Y130364D01*
X40656Y130260D01*
X40696Y130154D01*
X40733Y130047D01*
X40766Y129939D01*
X40796Y129829D01*
X40821Y129719D01*
X40843Y129608D01*
X40860Y129496D01*
X40874Y129383D01*
X40884Y129270D01*
X40890Y129157D01*
X40892Y129044D01*
X40892Y125799D01*
X29208Y141180D02*
X29210Y141287D01*
X29216Y141393D01*
X29226Y141499D01*
X29239Y141605D01*
X29257Y141711D01*
X29278Y141815D01*
X29303Y141919D01*
X29332Y142022D01*
X29364Y142123D01*
X29401Y142223D01*
X29441Y142322D01*
X29484Y142420D01*
X29531Y142516D01*
X29582Y142610D01*
X29636Y142702D01*
X29693Y142792D01*
X29753Y142880D01*
X29817Y142965D01*
X29884Y143048D01*
X29954Y143129D01*
X30026Y143207D01*
X30102Y143283D01*
X30180Y143355D01*
X30261Y143425D01*
X30344Y143492D01*
X30429Y143556D01*
X30517Y143616D01*
X30607Y143673D01*
X30699Y143727D01*
X30793Y143778D01*
X30889Y143825D01*
X30987Y143868D01*
X31086Y143908D01*
X31186Y143945D01*
X31287Y143977D01*
X31390Y144006D01*
X31494Y144031D01*
X31598Y144052D01*
X31704Y144070D01*
X31810Y144083D01*
X31916Y144093D01*
X32022Y144099D01*
X32129Y144101D01*
X29208Y141180D02*
X29210Y141059D01*
X29216Y140938D01*
X29226Y140818D01*
X29239Y140697D01*
X29257Y140578D01*
X29278Y140458D01*
X29303Y140340D01*
X29332Y140223D01*
X29365Y140106D01*
X29401Y139991D01*
X29442Y139877D01*
X29485Y139764D01*
X29533Y139652D01*
X29584Y139543D01*
X29639Y139435D01*
X29697Y139328D01*
X29758Y139224D01*
X29823Y139122D01*
X29891Y139022D01*
X29962Y138924D01*
X30036Y138828D01*
X30113Y138735D01*
X30194Y138645D01*
X30277Y138557D01*
X30363Y138472D01*
X30452Y138389D01*
X30543Y138310D01*
X30637Y138233D01*
X30733Y138160D01*
X30831Y138090D01*
X30932Y138023D01*
X31035Y137959D01*
X31140Y137899D01*
X31247Y137841D01*
X31355Y137788D01*
X31465Y137738D01*
X31577Y137692D01*
X31690Y137649D01*
X31805Y137610D01*
X34401Y143126D02*
X34323Y143205D01*
X34243Y143281D01*
X34160Y143354D01*
X34074Y143424D01*
X33987Y143491D01*
X33896Y143555D01*
X33804Y143615D01*
X33710Y143673D01*
X33613Y143727D01*
X33515Y143777D01*
X33415Y143824D01*
X33314Y143868D01*
X33211Y143908D01*
X33106Y143944D01*
X33001Y143976D01*
X32894Y144005D01*
X32787Y144030D01*
X32678Y144052D01*
X32569Y144069D01*
X32460Y144083D01*
X32350Y144092D01*
X32239Y144098D01*
X32129Y144100D01*
X34401Y143127D02*
X40892Y137610D01*
X40892Y144101D01*
X158708Y100808D02*
X170392Y100808D01*
X158708Y100808D02*
X158708Y104054D01*
X158710Y104167D01*
X158716Y104280D01*
X158726Y104393D01*
X158740Y104506D01*
X158757Y104618D01*
X158779Y104729D01*
X158804Y104839D01*
X158834Y104949D01*
X158867Y105057D01*
X158904Y105164D01*
X158944Y105270D01*
X158989Y105374D01*
X159037Y105477D01*
X159088Y105578D01*
X159143Y105677D01*
X159201Y105774D01*
X159263Y105869D01*
X159328Y105962D01*
X159396Y106052D01*
X159467Y106140D01*
X159542Y106226D01*
X159619Y106309D01*
X159699Y106389D01*
X159782Y106466D01*
X159868Y106541D01*
X159956Y106612D01*
X160046Y106680D01*
X160139Y106745D01*
X160234Y106807D01*
X160331Y106865D01*
X160430Y106920D01*
X160531Y106971D01*
X160634Y107019D01*
X160738Y107064D01*
X160844Y107104D01*
X160951Y107141D01*
X161059Y107174D01*
X161169Y107204D01*
X161279Y107229D01*
X161390Y107251D01*
X161502Y107268D01*
X161615Y107282D01*
X161728Y107292D01*
X161841Y107298D01*
X161954Y107300D01*
X162067Y107298D01*
X162180Y107292D01*
X162293Y107282D01*
X162406Y107268D01*
X162518Y107251D01*
X162629Y107229D01*
X162739Y107204D01*
X162849Y107174D01*
X162957Y107141D01*
X163064Y107104D01*
X163170Y107064D01*
X163274Y107019D01*
X163377Y106971D01*
X163478Y106920D01*
X163577Y106865D01*
X163674Y106807D01*
X163769Y106745D01*
X163862Y106680D01*
X163952Y106612D01*
X164040Y106541D01*
X164126Y106466D01*
X164209Y106389D01*
X164289Y106309D01*
X164366Y106226D01*
X164441Y106140D01*
X164512Y106052D01*
X164580Y105962D01*
X164645Y105869D01*
X164707Y105774D01*
X164765Y105677D01*
X164820Y105578D01*
X164871Y105477D01*
X164919Y105374D01*
X164964Y105270D01*
X165004Y105164D01*
X165041Y105057D01*
X165074Y104949D01*
X165104Y104839D01*
X165129Y104729D01*
X165151Y104618D01*
X165168Y104506D01*
X165182Y104393D01*
X165192Y104280D01*
X165198Y104167D01*
X165200Y104054D01*
X165199Y104054D02*
X165199Y100808D01*
X170392Y111039D02*
X158708Y114933D01*
X170392Y118828D01*
X167471Y117854D02*
X167471Y112012D01*
X170392Y123499D02*
X158708Y123499D01*
X158708Y126744D01*
X158710Y126857D01*
X158716Y126970D01*
X158726Y127083D01*
X158740Y127196D01*
X158757Y127308D01*
X158779Y127419D01*
X158804Y127529D01*
X158834Y127639D01*
X158867Y127747D01*
X158904Y127854D01*
X158944Y127960D01*
X158989Y128064D01*
X159037Y128167D01*
X159088Y128268D01*
X159143Y128367D01*
X159201Y128464D01*
X159263Y128559D01*
X159328Y128652D01*
X159396Y128742D01*
X159467Y128830D01*
X159542Y128916D01*
X159619Y128999D01*
X159699Y129079D01*
X159782Y129156D01*
X159868Y129231D01*
X159956Y129302D01*
X160046Y129370D01*
X160139Y129435D01*
X160234Y129497D01*
X160331Y129555D01*
X160430Y129610D01*
X160531Y129661D01*
X160634Y129709D01*
X160738Y129754D01*
X160844Y129794D01*
X160951Y129831D01*
X161059Y129864D01*
X161169Y129894D01*
X161279Y129919D01*
X161390Y129941D01*
X161502Y129958D01*
X161615Y129972D01*
X161728Y129982D01*
X161841Y129988D01*
X161954Y129990D01*
X167146Y129990D01*
X167259Y129988D01*
X167372Y129982D01*
X167485Y129972D01*
X167598Y129958D01*
X167710Y129941D01*
X167821Y129919D01*
X167931Y129894D01*
X168041Y129864D01*
X168149Y129831D01*
X168256Y129794D01*
X168362Y129754D01*
X168466Y129709D01*
X168569Y129661D01*
X168670Y129610D01*
X168769Y129555D01*
X168866Y129497D01*
X168961Y129435D01*
X169054Y129370D01*
X169144Y129302D01*
X169232Y129231D01*
X169318Y129156D01*
X169401Y129079D01*
X169481Y128999D01*
X169558Y128916D01*
X169633Y128830D01*
X169704Y128742D01*
X169772Y128652D01*
X169837Y128559D01*
X169899Y128464D01*
X169957Y128367D01*
X170012Y128268D01*
X170063Y128167D01*
X170111Y128064D01*
X170156Y127960D01*
X170196Y127854D01*
X170233Y127747D01*
X170266Y127639D01*
X170296Y127529D01*
X170321Y127419D01*
X170343Y127308D01*
X170360Y127196D01*
X170374Y127083D01*
X170384Y126970D01*
X170390Y126857D01*
X170392Y126744D01*
X170392Y123499D01*
X170392Y135310D02*
X170392Y138555D01*
X170390Y138668D01*
X170384Y138781D01*
X170374Y138894D01*
X170360Y139007D01*
X170343Y139119D01*
X170321Y139230D01*
X170296Y139340D01*
X170266Y139450D01*
X170233Y139558D01*
X170196Y139665D01*
X170156Y139771D01*
X170111Y139875D01*
X170063Y139978D01*
X170012Y140079D01*
X169957Y140178D01*
X169899Y140275D01*
X169837Y140370D01*
X169772Y140463D01*
X169704Y140553D01*
X169633Y140641D01*
X169558Y140727D01*
X169481Y140810D01*
X169401Y140890D01*
X169318Y140967D01*
X169232Y141042D01*
X169144Y141113D01*
X169054Y141181D01*
X168961Y141246D01*
X168866Y141308D01*
X168769Y141366D01*
X168670Y141421D01*
X168569Y141472D01*
X168466Y141520D01*
X168362Y141565D01*
X168256Y141605D01*
X168149Y141642D01*
X168041Y141675D01*
X167931Y141705D01*
X167821Y141730D01*
X167710Y141752D01*
X167598Y141769D01*
X167485Y141783D01*
X167372Y141793D01*
X167259Y141799D01*
X167146Y141801D01*
X167033Y141799D01*
X166920Y141793D01*
X166807Y141783D01*
X166694Y141769D01*
X166582Y141752D01*
X166471Y141730D01*
X166361Y141705D01*
X166251Y141675D01*
X166143Y141642D01*
X166036Y141605D01*
X165930Y141565D01*
X165826Y141520D01*
X165723Y141472D01*
X165622Y141421D01*
X165523Y141366D01*
X165426Y141308D01*
X165331Y141246D01*
X165238Y141181D01*
X165148Y141113D01*
X165060Y141042D01*
X164974Y140967D01*
X164891Y140890D01*
X164811Y140810D01*
X164734Y140727D01*
X164659Y140641D01*
X164588Y140553D01*
X164520Y140463D01*
X164455Y140370D01*
X164393Y140275D01*
X164335Y140178D01*
X164280Y140079D01*
X164229Y139978D01*
X164181Y139875D01*
X164136Y139771D01*
X164096Y139665D01*
X164059Y139558D01*
X164026Y139450D01*
X163996Y139340D01*
X163971Y139230D01*
X163949Y139119D01*
X163932Y139007D01*
X163918Y138894D01*
X163908Y138781D01*
X163902Y138668D01*
X163900Y138555D01*
X158708Y139204D02*
X158708Y135310D01*
X158708Y139204D02*
X158710Y139305D01*
X158716Y139405D01*
X158726Y139505D01*
X158739Y139605D01*
X158757Y139704D01*
X158778Y139803D01*
X158803Y139900D01*
X158832Y139997D01*
X158865Y140092D01*
X158901Y140186D01*
X158941Y140278D01*
X158984Y140369D01*
X159031Y140458D01*
X159081Y140545D01*
X159135Y140631D01*
X159192Y140714D01*
X159252Y140794D01*
X159315Y140873D01*
X159382Y140949D01*
X159451Y141022D01*
X159523Y141092D01*
X159597Y141160D01*
X159674Y141225D01*
X159754Y141286D01*
X159836Y141345D01*
X159920Y141400D01*
X160006Y141452D01*
X160094Y141501D01*
X160184Y141546D01*
X160276Y141588D01*
X160369Y141626D01*
X160464Y141660D01*
X160559Y141691D01*
X160656Y141718D01*
X160754Y141741D01*
X160853Y141761D01*
X160953Y141776D01*
X161053Y141788D01*
X161153Y141796D01*
X161254Y141800D01*
X161354Y141800D01*
X161455Y141796D01*
X161555Y141788D01*
X161655Y141776D01*
X161755Y141761D01*
X161854Y141741D01*
X161952Y141718D01*
X162049Y141691D01*
X162144Y141660D01*
X162239Y141626D01*
X162332Y141588D01*
X162424Y141546D01*
X162514Y141501D01*
X162602Y141452D01*
X162688Y141400D01*
X162772Y141345D01*
X162854Y141286D01*
X162934Y141225D01*
X163011Y141160D01*
X163085Y141092D01*
X163157Y141022D01*
X163226Y140949D01*
X163293Y140873D01*
X163356Y140794D01*
X163416Y140714D01*
X163473Y140631D01*
X163527Y140545D01*
X163577Y140458D01*
X163624Y140369D01*
X163667Y140278D01*
X163707Y140186D01*
X163743Y140092D01*
X163776Y139997D01*
X163805Y139900D01*
X163830Y139803D01*
X163851Y139704D01*
X163869Y139605D01*
X163882Y139505D01*
X163892Y139405D01*
X163898Y139305D01*
X163900Y139204D01*
X163901Y139204D02*
X163901Y136608D01*
X2792Y103108D02*
X-8892Y103108D01*
X-8892Y106354D01*
X-8890Y106467D01*
X-8884Y106580D01*
X-8874Y106693D01*
X-8860Y106806D01*
X-8843Y106918D01*
X-8821Y107029D01*
X-8796Y107139D01*
X-8766Y107249D01*
X-8733Y107357D01*
X-8696Y107464D01*
X-8656Y107570D01*
X-8611Y107674D01*
X-8563Y107777D01*
X-8512Y107878D01*
X-8457Y107977D01*
X-8399Y108074D01*
X-8337Y108169D01*
X-8272Y108262D01*
X-8204Y108352D01*
X-8133Y108440D01*
X-8058Y108526D01*
X-7981Y108609D01*
X-7901Y108689D01*
X-7818Y108766D01*
X-7732Y108841D01*
X-7644Y108912D01*
X-7554Y108980D01*
X-7461Y109045D01*
X-7366Y109107D01*
X-7269Y109165D01*
X-7170Y109220D01*
X-7069Y109271D01*
X-6966Y109319D01*
X-6862Y109364D01*
X-6756Y109404D01*
X-6649Y109441D01*
X-6541Y109474D01*
X-6431Y109504D01*
X-6321Y109529D01*
X-6210Y109551D01*
X-6098Y109568D01*
X-5985Y109582D01*
X-5872Y109592D01*
X-5759Y109598D01*
X-5646Y109600D01*
X-5533Y109598D01*
X-5420Y109592D01*
X-5307Y109582D01*
X-5194Y109568D01*
X-5082Y109551D01*
X-4971Y109529D01*
X-4861Y109504D01*
X-4751Y109474D01*
X-4643Y109441D01*
X-4536Y109404D01*
X-4430Y109364D01*
X-4326Y109319D01*
X-4223Y109271D01*
X-4122Y109220D01*
X-4023Y109165D01*
X-3926Y109107D01*
X-3831Y109045D01*
X-3738Y108980D01*
X-3648Y108912D01*
X-3560Y108841D01*
X-3474Y108766D01*
X-3391Y108689D01*
X-3311Y108609D01*
X-3234Y108526D01*
X-3159Y108440D01*
X-3088Y108352D01*
X-3020Y108262D01*
X-2955Y108169D01*
X-2893Y108074D01*
X-2835Y107977D01*
X-2780Y107878D01*
X-2729Y107777D01*
X-2681Y107674D01*
X-2636Y107570D01*
X-2596Y107464D01*
X-2559Y107357D01*
X-2526Y107249D01*
X-2496Y107139D01*
X-2471Y107029D01*
X-2449Y106918D01*
X-2432Y106806D01*
X-2418Y106693D01*
X-2408Y106580D01*
X-2402Y106467D01*
X-2400Y106354D01*
X-2401Y106354D02*
X-2401Y103108D01*
X2792Y113339D02*
X-8892Y117233D01*
X2792Y121128D01*
X-129Y120154D02*
X-129Y114312D01*
X2792Y125799D02*
X-8892Y125799D01*
X-8892Y129044D01*
X-8890Y129157D01*
X-8884Y129270D01*
X-8874Y129383D01*
X-8860Y129496D01*
X-8843Y129608D01*
X-8821Y129719D01*
X-8796Y129829D01*
X-8766Y129939D01*
X-8733Y130047D01*
X-8696Y130154D01*
X-8656Y130260D01*
X-8611Y130364D01*
X-8563Y130467D01*
X-8512Y130568D01*
X-8457Y130667D01*
X-8399Y130764D01*
X-8337Y130859D01*
X-8272Y130952D01*
X-8204Y131042D01*
X-8133Y131130D01*
X-8058Y131216D01*
X-7981Y131299D01*
X-7901Y131379D01*
X-7818Y131456D01*
X-7732Y131531D01*
X-7644Y131602D01*
X-7554Y131670D01*
X-7461Y131735D01*
X-7366Y131797D01*
X-7269Y131855D01*
X-7170Y131910D01*
X-7069Y131961D01*
X-6966Y132009D01*
X-6862Y132054D01*
X-6756Y132094D01*
X-6649Y132131D01*
X-6541Y132164D01*
X-6431Y132194D01*
X-6321Y132219D01*
X-6210Y132241D01*
X-6098Y132258D01*
X-5985Y132272D01*
X-5872Y132282D01*
X-5759Y132288D01*
X-5646Y132290D01*
X-454Y132290D01*
X-341Y132288D01*
X-228Y132282D01*
X-115Y132272D01*
X-2Y132258D01*
X110Y132241D01*
X221Y132219D01*
X331Y132194D01*
X441Y132164D01*
X549Y132131D01*
X656Y132094D01*
X762Y132054D01*
X866Y132009D01*
X969Y131961D01*
X1070Y131910D01*
X1169Y131855D01*
X1266Y131797D01*
X1361Y131735D01*
X1454Y131670D01*
X1544Y131602D01*
X1632Y131531D01*
X1718Y131456D01*
X1801Y131379D01*
X1881Y131299D01*
X1958Y131216D01*
X2033Y131130D01*
X2104Y131042D01*
X2172Y130952D01*
X2237Y130859D01*
X2299Y130764D01*
X2357Y130667D01*
X2412Y130568D01*
X2463Y130467D01*
X2511Y130364D01*
X2556Y130260D01*
X2596Y130154D01*
X2633Y130047D01*
X2666Y129939D01*
X2696Y129829D01*
X2721Y129719D01*
X2743Y129608D01*
X2760Y129496D01*
X2774Y129383D01*
X2784Y129270D01*
X2790Y129157D01*
X2792Y129044D01*
X2792Y125799D01*
X196Y137610D02*
X-8892Y140206D01*
X196Y137610D02*
X196Y144101D01*
X2792Y142153D02*
X-2401Y142153D01*
D10*
X126370Y37190D02*
X126372Y37090D01*
X126378Y36991D01*
X126388Y36891D01*
X126401Y36793D01*
X126419Y36694D01*
X126440Y36597D01*
X126465Y36501D01*
X126494Y36405D01*
X126527Y36311D01*
X126563Y36218D01*
X126603Y36127D01*
X126647Y36037D01*
X126694Y35949D01*
X126744Y35863D01*
X126798Y35779D01*
X126855Y35697D01*
X126915Y35618D01*
X126979Y35540D01*
X127045Y35466D01*
X127114Y35394D01*
X127186Y35325D01*
X127260Y35259D01*
X127338Y35195D01*
X127417Y35135D01*
X127499Y35078D01*
X127583Y35024D01*
X127669Y34974D01*
X127757Y34927D01*
X127847Y34883D01*
X127938Y34843D01*
X128031Y34807D01*
X128125Y34774D01*
X128221Y34745D01*
X128317Y34720D01*
X128414Y34699D01*
X128513Y34681D01*
X128611Y34668D01*
X128711Y34658D01*
X128810Y34652D01*
X128910Y34650D01*
X146690Y34650D02*
X146790Y34652D01*
X146889Y34658D01*
X146989Y34668D01*
X147087Y34681D01*
X147186Y34699D01*
X147283Y34720D01*
X147379Y34745D01*
X147475Y34774D01*
X147569Y34807D01*
X147662Y34843D01*
X147753Y34883D01*
X147843Y34927D01*
X147931Y34974D01*
X148017Y35024D01*
X148101Y35078D01*
X148183Y35135D01*
X148262Y35195D01*
X148340Y35259D01*
X148414Y35325D01*
X148486Y35394D01*
X148555Y35466D01*
X148621Y35540D01*
X148685Y35618D01*
X148745Y35697D01*
X148802Y35779D01*
X148856Y35863D01*
X148906Y35949D01*
X148953Y36037D01*
X148997Y36127D01*
X149037Y36218D01*
X149073Y36311D01*
X149106Y36405D01*
X149135Y36501D01*
X149160Y36597D01*
X149181Y36694D01*
X149199Y36793D01*
X149212Y36891D01*
X149222Y36991D01*
X149228Y37090D01*
X149230Y37190D01*
X149230Y95610D02*
X149228Y95710D01*
X149222Y95809D01*
X149212Y95909D01*
X149199Y96007D01*
X149181Y96106D01*
X149160Y96203D01*
X149135Y96299D01*
X149106Y96395D01*
X149073Y96489D01*
X149037Y96582D01*
X148997Y96673D01*
X148953Y96763D01*
X148906Y96851D01*
X148856Y96937D01*
X148802Y97021D01*
X148745Y97103D01*
X148685Y97182D01*
X148621Y97260D01*
X148555Y97334D01*
X148486Y97406D01*
X148414Y97475D01*
X148340Y97541D01*
X148262Y97605D01*
X148183Y97665D01*
X148101Y97722D01*
X148017Y97776D01*
X147931Y97826D01*
X147843Y97873D01*
X147753Y97917D01*
X147662Y97957D01*
X147569Y97993D01*
X147475Y98026D01*
X147379Y98055D01*
X147283Y98080D01*
X147186Y98101D01*
X147087Y98119D01*
X146989Y98132D01*
X146889Y98142D01*
X146790Y98148D01*
X146690Y98150D01*
X128910Y98150D02*
X128810Y98148D01*
X128711Y98142D01*
X128611Y98132D01*
X128513Y98119D01*
X128414Y98101D01*
X128317Y98080D01*
X128221Y98055D01*
X128125Y98026D01*
X128031Y97993D01*
X127938Y97957D01*
X127847Y97917D01*
X127757Y97873D01*
X127669Y97826D01*
X127583Y97776D01*
X127499Y97722D01*
X127417Y97665D01*
X127338Y97605D01*
X127260Y97541D01*
X127186Y97475D01*
X127114Y97406D01*
X127045Y97334D01*
X126979Y97260D01*
X126915Y97182D01*
X126855Y97103D01*
X126798Y97021D01*
X126744Y96937D01*
X126694Y96851D01*
X126647Y96763D01*
X126603Y96673D01*
X126563Y96582D01*
X126527Y96489D01*
X126494Y96395D01*
X126465Y96299D01*
X126440Y96203D01*
X126419Y96106D01*
X126401Y96007D01*
X126388Y95909D01*
X126378Y95809D01*
X126372Y95710D01*
X126370Y95610D01*
X126370Y41000D02*
X126370Y37190D01*
X126370Y41000D02*
X127640Y42270D01*
X149230Y41000D02*
X149230Y37190D01*
X149230Y41000D02*
X147960Y42270D01*
X127640Y90530D02*
X126370Y91800D01*
X127640Y90530D02*
X127640Y42270D01*
X147960Y90530D02*
X149230Y91800D01*
X147960Y90530D02*
X147960Y42270D01*
X126370Y91800D02*
X126370Y95610D01*
X149230Y95610D02*
X149230Y91800D01*
D12*
X123195Y41635D02*
X111765Y41635D01*
X111765Y44810D01*
X111767Y44921D01*
X111773Y45031D01*
X111782Y45142D01*
X111796Y45252D01*
X111813Y45361D01*
X111834Y45470D01*
X111859Y45578D01*
X111888Y45685D01*
X111920Y45791D01*
X111956Y45896D01*
X111996Y45999D01*
X112039Y46101D01*
X112086Y46202D01*
X112137Y46301D01*
X112190Y46397D01*
X112247Y46492D01*
X112308Y46585D01*
X112371Y46676D01*
X112438Y46765D01*
X112508Y46851D01*
X112581Y46934D01*
X112656Y47016D01*
X112734Y47094D01*
X112816Y47169D01*
X112899Y47242D01*
X112985Y47312D01*
X113074Y47379D01*
X113165Y47442D01*
X113258Y47503D01*
X113353Y47560D01*
X113449Y47613D01*
X113548Y47664D01*
X113649Y47711D01*
X113751Y47754D01*
X113854Y47794D01*
X113959Y47830D01*
X114065Y47862D01*
X114172Y47891D01*
X114280Y47916D01*
X114389Y47937D01*
X114498Y47954D01*
X114608Y47968D01*
X114719Y47977D01*
X114829Y47983D01*
X114940Y47985D01*
X115051Y47983D01*
X115161Y47977D01*
X115272Y47968D01*
X115382Y47954D01*
X115491Y47937D01*
X115600Y47916D01*
X115708Y47891D01*
X115815Y47862D01*
X115921Y47830D01*
X116026Y47794D01*
X116129Y47754D01*
X116231Y47711D01*
X116332Y47664D01*
X116431Y47613D01*
X116528Y47560D01*
X116622Y47503D01*
X116715Y47442D01*
X116806Y47379D01*
X116895Y47312D01*
X116981Y47242D01*
X117064Y47169D01*
X117146Y47094D01*
X117224Y47016D01*
X117299Y46934D01*
X117372Y46851D01*
X117442Y46765D01*
X117509Y46676D01*
X117572Y46585D01*
X117633Y46492D01*
X117690Y46398D01*
X117743Y46301D01*
X117794Y46202D01*
X117841Y46101D01*
X117884Y45999D01*
X117924Y45896D01*
X117960Y45791D01*
X117992Y45685D01*
X118021Y45578D01*
X118046Y45470D01*
X118067Y45361D01*
X118084Y45252D01*
X118098Y45142D01*
X118107Y45031D01*
X118113Y44921D01*
X118115Y44810D01*
X118115Y41635D01*
X118115Y45445D02*
X123195Y47985D01*
X114305Y52982D02*
X111765Y56157D01*
X123195Y56157D01*
X123195Y52982D02*
X123195Y59332D01*
D10*
X149110Y116170D02*
X149210Y116172D01*
X149309Y116178D01*
X149409Y116188D01*
X149507Y116201D01*
X149606Y116219D01*
X149703Y116240D01*
X149799Y116265D01*
X149895Y116294D01*
X149989Y116327D01*
X150082Y116363D01*
X150173Y116403D01*
X150263Y116447D01*
X150351Y116494D01*
X150437Y116544D01*
X150521Y116598D01*
X150603Y116655D01*
X150682Y116715D01*
X150760Y116779D01*
X150834Y116845D01*
X150906Y116914D01*
X150975Y116986D01*
X151041Y117060D01*
X151105Y117138D01*
X151165Y117217D01*
X151222Y117299D01*
X151276Y117383D01*
X151326Y117469D01*
X151373Y117557D01*
X151417Y117647D01*
X151457Y117738D01*
X151493Y117831D01*
X151526Y117925D01*
X151555Y118021D01*
X151580Y118117D01*
X151601Y118214D01*
X151619Y118313D01*
X151632Y118411D01*
X151642Y118511D01*
X151648Y118610D01*
X151650Y118710D01*
X151650Y136490D02*
X151648Y136590D01*
X151642Y136689D01*
X151632Y136789D01*
X151619Y136887D01*
X151601Y136986D01*
X151580Y137083D01*
X151555Y137179D01*
X151526Y137275D01*
X151493Y137369D01*
X151457Y137462D01*
X151417Y137553D01*
X151373Y137643D01*
X151326Y137731D01*
X151276Y137817D01*
X151222Y137901D01*
X151165Y137983D01*
X151105Y138062D01*
X151041Y138140D01*
X150975Y138214D01*
X150906Y138286D01*
X150834Y138355D01*
X150760Y138421D01*
X150682Y138485D01*
X150603Y138545D01*
X150521Y138602D01*
X150437Y138656D01*
X150351Y138706D01*
X150263Y138753D01*
X150173Y138797D01*
X150082Y138837D01*
X149989Y138873D01*
X149895Y138906D01*
X149799Y138935D01*
X149703Y138960D01*
X149606Y138981D01*
X149507Y138999D01*
X149409Y139012D01*
X149309Y139022D01*
X149210Y139028D01*
X149110Y139030D01*
X90690Y139030D02*
X90590Y139028D01*
X90491Y139022D01*
X90391Y139012D01*
X90293Y138999D01*
X90194Y138981D01*
X90097Y138960D01*
X90001Y138935D01*
X89905Y138906D01*
X89811Y138873D01*
X89718Y138837D01*
X89627Y138797D01*
X89537Y138753D01*
X89449Y138706D01*
X89363Y138656D01*
X89279Y138602D01*
X89197Y138545D01*
X89118Y138485D01*
X89040Y138421D01*
X88966Y138355D01*
X88894Y138286D01*
X88825Y138214D01*
X88759Y138140D01*
X88695Y138062D01*
X88635Y137983D01*
X88578Y137901D01*
X88524Y137817D01*
X88474Y137731D01*
X88427Y137643D01*
X88383Y137553D01*
X88343Y137462D01*
X88307Y137369D01*
X88274Y137275D01*
X88245Y137179D01*
X88220Y137083D01*
X88199Y136986D01*
X88181Y136887D01*
X88168Y136789D01*
X88158Y136689D01*
X88152Y136590D01*
X88150Y136490D01*
X88150Y118710D02*
X88152Y118610D01*
X88158Y118511D01*
X88168Y118411D01*
X88181Y118313D01*
X88199Y118214D01*
X88220Y118117D01*
X88245Y118021D01*
X88274Y117925D01*
X88307Y117831D01*
X88343Y117738D01*
X88383Y117647D01*
X88427Y117557D01*
X88474Y117469D01*
X88524Y117383D01*
X88578Y117299D01*
X88635Y117217D01*
X88695Y117138D01*
X88759Y117060D01*
X88825Y116986D01*
X88894Y116914D01*
X88966Y116845D01*
X89040Y116779D01*
X89118Y116715D01*
X89197Y116655D01*
X89279Y116598D01*
X89363Y116544D01*
X89449Y116494D01*
X89537Y116447D01*
X89627Y116403D01*
X89718Y116363D01*
X89811Y116327D01*
X89905Y116294D01*
X90001Y116265D01*
X90097Y116240D01*
X90194Y116219D01*
X90293Y116201D01*
X90391Y116188D01*
X90491Y116178D01*
X90590Y116172D01*
X90690Y116170D01*
X145300Y116170D02*
X149110Y116170D01*
X145300Y116170D02*
X144030Y117440D01*
X145300Y139030D02*
X149110Y139030D01*
X145300Y139030D02*
X144030Y137760D01*
X95770Y117440D02*
X94500Y116170D01*
X95770Y117440D02*
X144030Y117440D01*
X95770Y137760D02*
X94500Y139030D01*
X95770Y137760D02*
X144030Y137760D01*
X94500Y116170D02*
X90690Y116170D01*
X90690Y139030D02*
X94500Y139030D01*
D12*
X126968Y112995D02*
X126968Y101565D01*
X126968Y112995D02*
X130143Y112995D01*
X130254Y112993D01*
X130364Y112987D01*
X130475Y112978D01*
X130585Y112964D01*
X130694Y112947D01*
X130803Y112926D01*
X130911Y112901D01*
X131018Y112872D01*
X131124Y112840D01*
X131229Y112804D01*
X131332Y112764D01*
X131434Y112721D01*
X131535Y112674D01*
X131634Y112623D01*
X131731Y112570D01*
X131825Y112513D01*
X131918Y112452D01*
X132009Y112389D01*
X132098Y112322D01*
X132184Y112252D01*
X132267Y112179D01*
X132349Y112104D01*
X132427Y112026D01*
X132502Y111944D01*
X132575Y111861D01*
X132645Y111775D01*
X132712Y111686D01*
X132775Y111595D01*
X132836Y111502D01*
X132893Y111407D01*
X132946Y111311D01*
X132997Y111212D01*
X133044Y111111D01*
X133087Y111009D01*
X133127Y110906D01*
X133163Y110801D01*
X133195Y110695D01*
X133224Y110588D01*
X133249Y110480D01*
X133270Y110371D01*
X133287Y110262D01*
X133301Y110152D01*
X133310Y110041D01*
X133316Y109931D01*
X133318Y109820D01*
X133316Y109709D01*
X133310Y109599D01*
X133301Y109488D01*
X133287Y109378D01*
X133270Y109269D01*
X133249Y109160D01*
X133224Y109052D01*
X133195Y108945D01*
X133163Y108839D01*
X133127Y108734D01*
X133087Y108631D01*
X133044Y108529D01*
X132997Y108428D01*
X132946Y108329D01*
X132893Y108232D01*
X132836Y108138D01*
X132775Y108045D01*
X132712Y107954D01*
X132645Y107865D01*
X132575Y107779D01*
X132502Y107696D01*
X132427Y107614D01*
X132349Y107536D01*
X132267Y107461D01*
X132184Y107388D01*
X132098Y107318D01*
X132009Y107251D01*
X131918Y107188D01*
X131825Y107127D01*
X131730Y107070D01*
X131634Y107017D01*
X131535Y106966D01*
X131434Y106919D01*
X131332Y106876D01*
X131229Y106836D01*
X131124Y106800D01*
X131018Y106768D01*
X130911Y106739D01*
X130803Y106714D01*
X130694Y106693D01*
X130585Y106676D01*
X130475Y106662D01*
X130364Y106653D01*
X130254Y106647D01*
X130143Y106645D01*
X126968Y106645D01*
X130778Y106645D02*
X133318Y101565D01*
X144666Y110138D02*
X144664Y110242D01*
X144658Y110347D01*
X144649Y110451D01*
X144636Y110554D01*
X144618Y110657D01*
X144598Y110759D01*
X144573Y110861D01*
X144545Y110961D01*
X144513Y111061D01*
X144477Y111159D01*
X144438Y111256D01*
X144396Y111351D01*
X144350Y111445D01*
X144300Y111537D01*
X144248Y111627D01*
X144192Y111715D01*
X144132Y111801D01*
X144070Y111885D01*
X144005Y111966D01*
X143937Y112045D01*
X143865Y112122D01*
X143792Y112195D01*
X143715Y112267D01*
X143636Y112335D01*
X143555Y112400D01*
X143471Y112462D01*
X143385Y112522D01*
X143297Y112578D01*
X143207Y112630D01*
X143115Y112680D01*
X143021Y112726D01*
X142926Y112768D01*
X142829Y112807D01*
X142731Y112843D01*
X142631Y112875D01*
X142531Y112903D01*
X142429Y112928D01*
X142327Y112948D01*
X142224Y112966D01*
X142121Y112979D01*
X142017Y112988D01*
X141912Y112994D01*
X141808Y112996D01*
X141808Y112995D02*
X141690Y112993D01*
X141571Y112987D01*
X141453Y112978D01*
X141336Y112965D01*
X141219Y112947D01*
X141102Y112927D01*
X140986Y112902D01*
X140871Y112874D01*
X140758Y112841D01*
X140645Y112806D01*
X140533Y112766D01*
X140423Y112724D01*
X140314Y112677D01*
X140206Y112627D01*
X140101Y112574D01*
X139997Y112517D01*
X139895Y112457D01*
X139795Y112394D01*
X139697Y112327D01*
X139601Y112258D01*
X139508Y112185D01*
X139417Y112109D01*
X139328Y112031D01*
X139242Y111949D01*
X139159Y111865D01*
X139078Y111779D01*
X139001Y111689D01*
X138926Y111598D01*
X138854Y111504D01*
X138785Y111407D01*
X138720Y111309D01*
X138657Y111208D01*
X138598Y111105D01*
X138542Y111001D01*
X138490Y110895D01*
X138441Y110787D01*
X138396Y110678D01*
X138354Y110567D01*
X138316Y110455D01*
X143713Y107916D02*
X143789Y107991D01*
X143864Y108070D01*
X143935Y108151D01*
X144004Y108235D01*
X144069Y108321D01*
X144131Y108409D01*
X144191Y108499D01*
X144247Y108591D01*
X144300Y108686D01*
X144349Y108782D01*
X144395Y108880D01*
X144438Y108979D01*
X144477Y109080D01*
X144512Y109182D01*
X144544Y109285D01*
X144572Y109389D01*
X144597Y109494D01*
X144618Y109601D01*
X144635Y109707D01*
X144648Y109814D01*
X144657Y109922D01*
X144663Y110030D01*
X144665Y110138D01*
X143713Y107915D02*
X138315Y101565D01*
X144665Y101565D01*
D10*
X161970Y19290D02*
X161972Y19190D01*
X161978Y19091D01*
X161988Y18991D01*
X162001Y18893D01*
X162019Y18794D01*
X162040Y18697D01*
X162065Y18601D01*
X162094Y18505D01*
X162127Y18411D01*
X162163Y18318D01*
X162203Y18227D01*
X162247Y18137D01*
X162294Y18049D01*
X162344Y17963D01*
X162398Y17879D01*
X162455Y17797D01*
X162515Y17718D01*
X162579Y17640D01*
X162645Y17566D01*
X162714Y17494D01*
X162786Y17425D01*
X162860Y17359D01*
X162938Y17295D01*
X163017Y17235D01*
X163099Y17178D01*
X163183Y17124D01*
X163269Y17074D01*
X163357Y17027D01*
X163447Y16983D01*
X163538Y16943D01*
X163631Y16907D01*
X163725Y16874D01*
X163821Y16845D01*
X163917Y16820D01*
X164014Y16799D01*
X164113Y16781D01*
X164211Y16768D01*
X164311Y16758D01*
X164410Y16752D01*
X164510Y16750D01*
X182290Y16750D02*
X182390Y16752D01*
X182489Y16758D01*
X182589Y16768D01*
X182687Y16781D01*
X182786Y16799D01*
X182883Y16820D01*
X182979Y16845D01*
X183075Y16874D01*
X183169Y16907D01*
X183262Y16943D01*
X183353Y16983D01*
X183443Y17027D01*
X183531Y17074D01*
X183617Y17124D01*
X183701Y17178D01*
X183783Y17235D01*
X183862Y17295D01*
X183940Y17359D01*
X184014Y17425D01*
X184086Y17494D01*
X184155Y17566D01*
X184221Y17640D01*
X184285Y17718D01*
X184345Y17797D01*
X184402Y17879D01*
X184456Y17963D01*
X184506Y18049D01*
X184553Y18137D01*
X184597Y18227D01*
X184637Y18318D01*
X184673Y18411D01*
X184706Y18505D01*
X184735Y18601D01*
X184760Y18697D01*
X184781Y18794D01*
X184799Y18893D01*
X184812Y18991D01*
X184822Y19091D01*
X184828Y19190D01*
X184830Y19290D01*
X184830Y77710D02*
X184828Y77810D01*
X184822Y77909D01*
X184812Y78009D01*
X184799Y78107D01*
X184781Y78206D01*
X184760Y78303D01*
X184735Y78399D01*
X184706Y78495D01*
X184673Y78589D01*
X184637Y78682D01*
X184597Y78773D01*
X184553Y78863D01*
X184506Y78951D01*
X184456Y79037D01*
X184402Y79121D01*
X184345Y79203D01*
X184285Y79282D01*
X184221Y79360D01*
X184155Y79434D01*
X184086Y79506D01*
X184014Y79575D01*
X183940Y79641D01*
X183862Y79705D01*
X183783Y79765D01*
X183701Y79822D01*
X183617Y79876D01*
X183531Y79926D01*
X183443Y79973D01*
X183353Y80017D01*
X183262Y80057D01*
X183169Y80093D01*
X183075Y80126D01*
X182979Y80155D01*
X182883Y80180D01*
X182786Y80201D01*
X182687Y80219D01*
X182589Y80232D01*
X182489Y80242D01*
X182390Y80248D01*
X182290Y80250D01*
X164510Y80250D02*
X164410Y80248D01*
X164311Y80242D01*
X164211Y80232D01*
X164113Y80219D01*
X164014Y80201D01*
X163917Y80180D01*
X163821Y80155D01*
X163725Y80126D01*
X163631Y80093D01*
X163538Y80057D01*
X163447Y80017D01*
X163357Y79973D01*
X163269Y79926D01*
X163183Y79876D01*
X163099Y79822D01*
X163017Y79765D01*
X162938Y79705D01*
X162860Y79641D01*
X162786Y79575D01*
X162714Y79506D01*
X162645Y79434D01*
X162579Y79360D01*
X162515Y79282D01*
X162455Y79203D01*
X162398Y79121D01*
X162344Y79037D01*
X162294Y78951D01*
X162247Y78863D01*
X162203Y78773D01*
X162163Y78682D01*
X162127Y78589D01*
X162094Y78495D01*
X162065Y78399D01*
X162040Y78303D01*
X162019Y78206D01*
X162001Y78107D01*
X161988Y78009D01*
X161978Y77909D01*
X161972Y77810D01*
X161970Y77710D01*
X161970Y23100D02*
X161970Y19290D01*
X161970Y23100D02*
X163240Y24370D01*
X184830Y23100D02*
X184830Y19290D01*
X184830Y23100D02*
X183560Y24370D01*
X163240Y72630D02*
X161970Y73900D01*
X163240Y72630D02*
X163240Y24370D01*
X183560Y72630D02*
X184830Y73900D01*
X183560Y72630D02*
X183560Y24370D01*
X161970Y73900D02*
X161970Y77710D01*
X184830Y77710D02*
X184830Y73900D01*
D12*
X158795Y23735D02*
X147365Y23735D01*
X147365Y26910D01*
X147367Y27021D01*
X147373Y27131D01*
X147382Y27242D01*
X147396Y27352D01*
X147413Y27461D01*
X147434Y27570D01*
X147459Y27678D01*
X147488Y27785D01*
X147520Y27891D01*
X147556Y27996D01*
X147596Y28099D01*
X147639Y28201D01*
X147686Y28302D01*
X147737Y28401D01*
X147790Y28497D01*
X147847Y28592D01*
X147908Y28685D01*
X147971Y28776D01*
X148038Y28865D01*
X148108Y28951D01*
X148181Y29034D01*
X148256Y29116D01*
X148334Y29194D01*
X148416Y29269D01*
X148499Y29342D01*
X148585Y29412D01*
X148674Y29479D01*
X148765Y29542D01*
X148858Y29603D01*
X148953Y29660D01*
X149049Y29713D01*
X149148Y29764D01*
X149249Y29811D01*
X149351Y29854D01*
X149454Y29894D01*
X149559Y29930D01*
X149665Y29962D01*
X149772Y29991D01*
X149880Y30016D01*
X149989Y30037D01*
X150098Y30054D01*
X150208Y30068D01*
X150319Y30077D01*
X150429Y30083D01*
X150540Y30085D01*
X150651Y30083D01*
X150761Y30077D01*
X150872Y30068D01*
X150982Y30054D01*
X151091Y30037D01*
X151200Y30016D01*
X151308Y29991D01*
X151415Y29962D01*
X151521Y29930D01*
X151626Y29894D01*
X151729Y29854D01*
X151831Y29811D01*
X151932Y29764D01*
X152031Y29713D01*
X152128Y29660D01*
X152222Y29603D01*
X152315Y29542D01*
X152406Y29479D01*
X152495Y29412D01*
X152581Y29342D01*
X152664Y29269D01*
X152746Y29194D01*
X152824Y29116D01*
X152899Y29034D01*
X152972Y28951D01*
X153042Y28865D01*
X153109Y28776D01*
X153172Y28685D01*
X153233Y28592D01*
X153290Y28498D01*
X153343Y28401D01*
X153394Y28302D01*
X153441Y28201D01*
X153484Y28099D01*
X153524Y27996D01*
X153560Y27891D01*
X153592Y27785D01*
X153621Y27678D01*
X153646Y27570D01*
X153667Y27461D01*
X153684Y27352D01*
X153698Y27242D01*
X153707Y27131D01*
X153713Y27021D01*
X153715Y26910D01*
X153715Y23735D01*
X153715Y27545D02*
X158795Y30085D01*
X158795Y35082D02*
X158795Y38257D01*
X158793Y38368D01*
X158787Y38478D01*
X158778Y38589D01*
X158764Y38699D01*
X158747Y38808D01*
X158726Y38917D01*
X158701Y39025D01*
X158672Y39132D01*
X158640Y39238D01*
X158604Y39343D01*
X158564Y39446D01*
X158521Y39548D01*
X158474Y39649D01*
X158423Y39748D01*
X158370Y39845D01*
X158313Y39939D01*
X158252Y40032D01*
X158189Y40123D01*
X158122Y40212D01*
X158052Y40298D01*
X157979Y40381D01*
X157904Y40463D01*
X157826Y40541D01*
X157744Y40616D01*
X157661Y40689D01*
X157575Y40759D01*
X157486Y40826D01*
X157395Y40889D01*
X157302Y40950D01*
X157208Y41007D01*
X157111Y41060D01*
X157012Y41111D01*
X156911Y41158D01*
X156809Y41201D01*
X156706Y41241D01*
X156601Y41277D01*
X156495Y41309D01*
X156388Y41338D01*
X156280Y41363D01*
X156171Y41384D01*
X156062Y41401D01*
X155952Y41415D01*
X155841Y41424D01*
X155731Y41430D01*
X155620Y41432D01*
X155509Y41430D01*
X155399Y41424D01*
X155288Y41415D01*
X155178Y41401D01*
X155069Y41384D01*
X154960Y41363D01*
X154852Y41338D01*
X154745Y41309D01*
X154639Y41277D01*
X154534Y41241D01*
X154431Y41201D01*
X154329Y41158D01*
X154228Y41111D01*
X154129Y41060D01*
X154033Y41007D01*
X153938Y40950D01*
X153845Y40889D01*
X153754Y40826D01*
X153665Y40759D01*
X153579Y40689D01*
X153496Y40616D01*
X153414Y40541D01*
X153336Y40463D01*
X153261Y40381D01*
X153188Y40298D01*
X153118Y40212D01*
X153051Y40123D01*
X152988Y40032D01*
X152927Y39939D01*
X152870Y39844D01*
X152817Y39748D01*
X152766Y39649D01*
X152719Y39548D01*
X152676Y39446D01*
X152636Y39343D01*
X152600Y39238D01*
X152568Y39132D01*
X152539Y39025D01*
X152514Y38917D01*
X152493Y38808D01*
X152476Y38699D01*
X152462Y38589D01*
X152453Y38478D01*
X152447Y38368D01*
X152445Y38257D01*
X147365Y38892D02*
X147365Y35082D01*
X147365Y38892D02*
X147367Y38992D01*
X147373Y39091D01*
X147383Y39191D01*
X147396Y39289D01*
X147414Y39388D01*
X147435Y39485D01*
X147460Y39581D01*
X147489Y39677D01*
X147522Y39771D01*
X147558Y39864D01*
X147598Y39955D01*
X147642Y40045D01*
X147689Y40133D01*
X147739Y40219D01*
X147793Y40303D01*
X147850Y40385D01*
X147910Y40464D01*
X147974Y40542D01*
X148040Y40616D01*
X148109Y40688D01*
X148181Y40757D01*
X148255Y40823D01*
X148333Y40887D01*
X148412Y40947D01*
X148494Y41004D01*
X148578Y41058D01*
X148664Y41108D01*
X148752Y41155D01*
X148842Y41199D01*
X148933Y41239D01*
X149026Y41275D01*
X149120Y41308D01*
X149216Y41337D01*
X149312Y41362D01*
X149409Y41383D01*
X149508Y41401D01*
X149606Y41414D01*
X149706Y41424D01*
X149805Y41430D01*
X149905Y41432D01*
X150005Y41430D01*
X150104Y41424D01*
X150204Y41414D01*
X150302Y41401D01*
X150401Y41383D01*
X150498Y41362D01*
X150594Y41337D01*
X150690Y41308D01*
X150784Y41275D01*
X150877Y41239D01*
X150968Y41199D01*
X151058Y41155D01*
X151146Y41108D01*
X151232Y41058D01*
X151316Y41004D01*
X151398Y40947D01*
X151477Y40887D01*
X151555Y40823D01*
X151629Y40757D01*
X151701Y40688D01*
X151770Y40616D01*
X151836Y40542D01*
X151900Y40464D01*
X151960Y40385D01*
X152017Y40303D01*
X152071Y40219D01*
X152121Y40133D01*
X152168Y40045D01*
X152212Y39955D01*
X152252Y39864D01*
X152288Y39771D01*
X152321Y39677D01*
X152350Y39581D01*
X152375Y39485D01*
X152396Y39388D01*
X152414Y39289D01*
X152427Y39191D01*
X152437Y39091D01*
X152443Y38992D01*
X152445Y38892D01*
X152445Y36352D01*
X230510Y27750D02*
X230510Y69650D01*
X202641Y72830D02*
X202057Y72547D01*
X201481Y72249D01*
X200912Y71938D01*
X200351Y71613D01*
X199798Y71274D01*
X199253Y70922D01*
X198717Y70557D01*
X198190Y70179D01*
X197673Y69788D01*
X197165Y69385D01*
X196667Y68969D01*
X196179Y68542D01*
X195702Y68103D01*
X195235Y67652D01*
X194780Y67190D01*
X194336Y66717D01*
X193904Y66234D01*
X193483Y65740D01*
X193075Y65236D01*
X192679Y64722D01*
X192296Y64199D01*
X191925Y63667D01*
X191568Y63125D01*
X191224Y62576D01*
X190893Y62018D01*
X190576Y61452D01*
X190273Y60879D01*
X189984Y60298D01*
X189709Y59711D01*
X189448Y59117D01*
X189202Y58517D01*
X188971Y57911D01*
X188754Y57299D01*
X188553Y56683D01*
X188366Y56062D01*
X188195Y55436D01*
X188039Y54807D01*
X187898Y54174D01*
X187772Y53537D01*
X187663Y52898D01*
X187568Y52257D01*
X187490Y51613D01*
X187427Y50967D01*
X187379Y50320D01*
X187348Y49673D01*
X187332Y49024D01*
X187332Y48376D01*
X187348Y47727D01*
X187379Y47080D01*
X187427Y46433D01*
X187490Y45787D01*
X187568Y45143D01*
X187663Y44502D01*
X187772Y43863D01*
X187898Y43226D01*
X188039Y42593D01*
X188195Y41964D01*
X188366Y41338D01*
X188553Y40717D01*
X188754Y40101D01*
X188971Y39489D01*
X189202Y38883D01*
X189448Y38283D01*
X189709Y37689D01*
X189984Y37102D01*
X190273Y36521D01*
X190576Y35948D01*
X190893Y35382D01*
X191224Y34824D01*
X191568Y34275D01*
X191925Y33733D01*
X192296Y33201D01*
X192679Y32678D01*
X193075Y32164D01*
X193483Y31660D01*
X193904Y31166D01*
X194336Y30683D01*
X194780Y30210D01*
X195235Y29748D01*
X195702Y29297D01*
X196179Y28858D01*
X196667Y28431D01*
X197165Y28015D01*
X197673Y27612D01*
X198190Y27221D01*
X198717Y26843D01*
X199253Y26478D01*
X199798Y26126D01*
X200351Y25787D01*
X200912Y25462D01*
X201481Y25151D01*
X202057Y24853D01*
X202641Y24570D01*
X225359Y24565D02*
X225905Y24830D01*
X226445Y25107D01*
X226978Y25396D01*
X227505Y25698D01*
X228025Y26011D01*
X228538Y26336D01*
X229043Y26673D01*
X229540Y27021D01*
X230029Y27380D01*
X230510Y27750D01*
X215270Y34660D02*
X215270Y37340D01*
X215270Y60060D02*
X215270Y62740D01*
X225118Y72947D02*
X225691Y72676D01*
X226257Y72391D01*
X226816Y72094D01*
X227368Y71783D01*
X227912Y71458D01*
X228448Y71122D01*
X228977Y70772D01*
X229497Y70410D01*
X230008Y70036D01*
X230510Y69650D01*
X182885Y27110D02*
X171455Y27110D01*
X171455Y23935D02*
X171455Y30285D01*
X173995Y34603D02*
X171455Y37778D01*
X182885Y37778D01*
X182885Y34603D02*
X182885Y40953D01*
M02*
